# xmcd
#
# Track frame offsets: 
#        150
#        17740
#        36868
#        50121
#        66281
#        85523
#        96550
#        112547
#
# Disc length: 1690 seconds
#
# Revision: 0
# Processed by: cddbd v1.5.2PL0 Copyright (c) Steve Scherf et al.
# Submitted via: ExactAudioCopy v1.2
#
DISCID=60069808
DTITLE=Sean Pinchin - Bad Things
DYEAR=2019
DGENRE=Blues
TTITLE0=If You're Gonna Leave Me
TTITLE1=Bad Things
TTITLE2=Lie to Me
TTITLE3=Someone Like You
TTITLE4=Devil Got My Women
TTITLE5=Nobody's Fault but Mine
TTITLE6=Hands to Yourself
TTITLE7=River
EXTD=
EXTT0=
EXTT1=
EXTT2=
EXTT3=
EXTT4=
EXTT5=
EXTT6=
EXTT7=
PLAYORDER=
